<?xml version="1.0" encoding="UTF-8"?>
<svg xmlns="http://www.w3.org/2000/svg" xmlns:xlink="http://www.w3.org/1999/xlink" width="300px" height="124px" viewBox="0 0 271 112" version="1.1">
<g id="surface1">
<path style=" stroke:none;fill-rule:nonzero;fill:rgb(36.470589%,32.941177%,94.509804%);fill-opacity:1;" d="M 44.15625 97.214844 C 23.453125 95.453125 7.09375 78.449219 6.332031 57.460938 L -1.148438 57.460938 C -0.375 82.582031 19.320312 102.933594 44.15625 104.71875 Z M 44.15625 97.214844 "/>
<path style=" stroke:none;fill-rule:nonzero;fill:rgb(0%,0%,0%);fill-opacity:1;" d="M 6.683594 50.277344 C 9.277344 31.214844 24.824219 16.28125 44.15625 14.636719 L 44.15625 7.132812 C 20.691406 8.816406 1.8125 27.078125 -0.851562 50.277344 Z M 6.683594 50.277344 "/>
<path style=" stroke:none;fill-rule:nonzero;fill:rgb(36.470589%,32.941177%,94.509804%);fill-opacity:1;" d="M 77.550781 27.15625 C 78.515625 27.058594 79.492188 27.007812 80.484375 27.007812 C 83.027344 27.007812 85.496094 27.339844 87.847656 27.960938 C 79.667969 16.199219 66.457031 8.203125 51.335938 7.097656 L 51.335938 14.601562 C 61.605469 15.496094 70.804688 20.136719 77.554688 27.160156 Z M 77.550781 27.15625 "/>
<path style=" stroke:none;fill-rule:nonzero;fill:rgb(0%,0%,0%);fill-opacity:1;" d="M 80.484375 84.757812 C 79.492188 84.757812 78.515625 84.707031 77.550781 84.609375 C 70.800781 91.625 61.605469 96.269531 51.332031 97.164062 L 51.332031 104.667969 C 66.457031 103.558594 79.664062 95.5625 87.847656 83.804688 C 85.496094 84.425781 83.027344 84.757812 80.480469 84.757812 Z M 80.484375 84.757812 "/>
<path style=" stroke:none;fill-rule:nonzero;fill:rgb(0%,0%,0%);fill-opacity:1;" d="M 28.058594 38.292969 C 32.617188 33.222656 39.113281 29.910156 46.457031 29.558594 C 53.777344 29.214844 60.546875 31.882812 65.558594 36.476562 L 70.800781 31.503906 C 64.777344 25.808594 56.652344 22.316406 47.707031 22.316406 C 37.496094 22.316406 28.351562 26.871094 22.179688 34.0625 Z M 28.058594 38.292969 "/>
<path style=" stroke:none;fill-rule:nonzero;fill:rgb(36.470589%,32.941177%,94.509804%);fill-opacity:1;" d="M 70.152344 42.011719 C 72.460938 45.71875 73.886719 50.050781 74.109375 54.726562 C 74.355469 59.902344 73.09375 64.800781 70.71875 68.996094 L 76.597656 73.226562 C 79.609375 68.183594 81.34375 62.28125 81.34375 55.976562 C 81.34375 48.921875 79.175781 42.378906 75.472656 36.96875 L 70.152344 42.007812 Z M 70.152344 42.011719 "/>
<path style=" stroke:none;fill-rule:nonzero;fill:rgb(36.470589%,32.941177%,94.509804%);fill-opacity:1;" d="M 27.273438 72.753906 C 23.789062 68.507812 21.589844 63.144531 21.308594 57.234375 C 21.085938 52.570312 22.089844 48.136719 24.023438 44.238281 L 18.109375 39.980469 C 15.535156 44.738281 14.070312 50.191406 14.070312 55.980469 C 14.070312 64.273438 17.066406 71.859375 22.03125 77.722656 L 27.273438 72.757812 Z M 27.273438 72.753906 "/>
<path style=" stroke:none;fill-rule:nonzero;fill:rgb(0%,0%,0%);fill-opacity:1;" d="M 66.367188 74.710938 C 61.882812 79.1875 55.785156 82.078125 48.957031 82.398438 C 42.875 82.6875 37.175781 80.894531 32.546875 77.648438 L 27.230469 82.6875 C 32.902344 87.046875 40.003906 89.644531 47.707031 89.644531 C 57.40625 89.644531 66.140625 85.535156 72.277344 78.96875 L 66.367188 74.714844 Z M 66.367188 74.710938 "/>
<path style=" stroke:none;fill-rule:nonzero;fill:rgb(0%,0%,0%);fill-opacity:1;" d="M 102.015625 43.992188 C 104.03125 39.414062 107.816406 37.125 113.375 37.125 L 113.375 45.761719 C 110.324219 45.566406 107.667969 46.292969 105.40625 47.9375 C 103.144531 49.589844 102.011719 52.308594 102.011719 56.097656 L 102.011719 74.707031 L 94.042969 74.707031 L 94.042969 37.785156 L 102.011719 37.785156 L 102.011719 43.988281 Z M 102.015625 43.992188 "/>
<path style=" stroke:none;fill-rule:nonzero;fill:rgb(0%,0%,0%);fill-opacity:1;" d="M 146.066406 37.789062 L 154.035156 37.789062 L 154.035156 74.710938 L 146.066406 74.710938 L 146.066406 69.394531 C 143.066406 73.578125 138.761719 75.671875 133.152344 75.671875 C 128.085938 75.671875 123.757812 73.785156 120.167969 70.023438 C 116.578125 66.253906 114.78125 61.667969 114.78125 56.25 C 114.78125 50.835938 116.574219 46.183594 120.167969 42.441406 C 123.757812 38.699219 128.085938 36.828125 133.152344 36.828125 C 138.761719 36.828125 143.066406 38.894531 146.066406 43.03125 Z M 126.070312 64.703125 C 128.285156 66.945312 131.0625 68.0625 134.410156 68.0625 C 137.753906 68.0625 140.535156 66.945312 142.746094 64.703125 C 144.960938 62.464844 146.066406 59.644531 146.066406 56.25 C 146.066406 52.851562 144.960938 50.035156 142.746094 47.792969 C 140.535156 45.554688 137.753906 44.433594 134.410156 44.433594 C 131.0625 44.433594 128.285156 45.554688 126.070312 47.792969 C 123.855469 50.035156 122.75 52.851562 122.75 56.25 C 122.75 59.644531 123.855469 62.464844 126.070312 64.703125 Z M 126.070312 64.703125 "/>
<path style=" stroke:none;fill-rule:nonzero;fill:rgb(0%,0%,0%);fill-opacity:1;" d="M 180.007812 75.671875 C 174.445312 75.671875 169.8125 73.800781 166.097656 70.058594 C 162.382812 66.316406 160.527344 61.714844 160.527344 56.25 C 160.527344 50.785156 162.382812 46.121094 166.097656 42.402344 C 169.8125 38.683594 174.445312 36.828125 180.007812 36.828125 C 183.597656 36.828125 186.871094 37.6875 189.820312 39.410156 C 192.769531 41.132812 194.984375 43.449219 196.460938 46.351562 L 189.601562 50.339844 C 188.761719 48.566406 187.496094 47.179688 185.800781 46.167969 C 184.105469 45.160156 182.148438 44.65625 179.933594 44.65625 C 176.6875 44.65625 173.96875 45.761719 171.78125 47.976562 C 169.589844 50.191406 168.496094 52.949219 168.496094 56.246094 C 168.496094 59.542969 169.589844 62.300781 171.78125 64.519531 C 173.96875 66.734375 176.691406 67.839844 179.933594 67.839844 C 182.097656 67.839844 184.054688 67.324219 185.800781 66.289062 C 187.546875 65.253906 188.863281 63.878906 189.746094 62.152344 L 196.609375 66.066406 C 195.035156 69.019531 192.773438 71.359375 189.824219 73.082031 C 186.871094 74.804688 183.601562 75.664062 180.007812 75.664062 Z M 180.007812 75.671875 "/>
<path style=" stroke:none;fill-rule:nonzero;fill:rgb(0%,0%,0%);fill-opacity:1;" d="M 226.710938 37.789062 L 234.679688 37.789062 L 234.679688 74.710938 L 226.710938 74.710938 L 226.710938 69.984375 C 224.300781 73.777344 220.488281 75.671875 215.273438 75.671875 C 211.042969 75.671875 207.625 74.316406 205.019531 71.609375 C 202.410156 68.902344 201.109375 65.1875 201.109375 60.460938 L 201.109375 37.789062 L 209.078125 37.789062 L 209.078125 59.644531 C 209.078125 62.402344 209.816406 64.519531 211.292969 65.996094 C 212.769531 67.472656 214.785156 68.210938 217.34375 68.210938 C 220.144531 68.210938 222.40625 67.339844 224.128906 65.589844 C 225.851562 63.84375 226.710938 61.171875 226.710938 57.578125 Z M 226.710938 37.789062 "/>
<path style=" stroke:none;fill-rule:nonzero;fill:rgb(0%,0%,0%);fill-opacity:1;" d="M 250.179688 47.929688 C 250.179688 49.144531 250.859375 50.105469 252.222656 50.808594 C 253.585938 51.515625 255.222656 52.160156 257.128906 52.746094 C 259.035156 53.339844 260.992188 53.941406 262.996094 54.558594 C 264.996094 55.175781 266.671875 56.320312 268.015625 57.988281 C 269.355469 59.652344 270.027344 61.757812 270.027344 64.300781 C 270.027344 67.84375 268.664062 70.625 265.933594 72.644531 C 263.203125 74.664062 259.773438 75.671875 255.640625 75.671875 C 252 75.671875 248.875 74.910156 246.269531 73.386719 C 243.664062 71.859375 241.769531 69.742188 240.589844 67.035156 L 247.453125 63.046875 C 248.734375 66.59375 251.464844 68.363281 255.644531 68.363281 C 259.824219 68.363281 261.914062 66.984375 261.914062 64.226562 C 261.914062 63.042969 261.238281 62.085938 259.882812 61.347656 C 258.53125 60.609375 256.902344 59.945312 254.992188 59.355469 C 253.082031 58.765625 251.125 58.164062 249.125 57.546875 C 247.121094 56.933594 245.441406 55.820312 244.09375 54.222656 C 242.738281 52.621094 242.0625 50.589844 242.0625 48.128906 C 242.0625 44.730469 243.355469 42 245.9375 39.933594 C 248.519531 37.867188 251.730469 36.832031 255.566406 36.832031 C 258.617188 36.832031 261.335938 37.511719 263.71875 38.863281 C 266.105469 40.21875 267.9375 42.101562 269.21875 44.515625 L 262.503906 48.28125 C 261.222656 45.476562 258.914062 44.070312 255.566406 44.070312 C 254.042969 44.070312 252.765625 44.402344 251.730469 45.054688 C 250.699219 45.710938 250.179688 46.671875 250.179688 47.9375 Z M 250.179688 47.929688 "/>
</g>
</svg>
