<?xml version="1.0" encoding="UTF-8"?>
<svg id="Layer_1" data-name="Layer 1" xmlns="http://www.w3.org/2000/svg" viewBox="0 0 1080 446">
  <defs>
    <style>
      .cls-1 {
        fill: #5d54f1;
      }
    </style>
  </defs>
  <g>
    <path class="cls-1" d="m175.98,387.12c-82.52-7.01-147.71-74.72-150.75-158.31H-4.58c3.08,100.04,81.58,181.09,180.56,188.19v-29.88Z"/>
    <path d="m26.63,200.21C36.98,124.3,98.93,64.83,175.98,58.28v-29.88C82.46,35.11,7.23,107.83-3.39,200.21h30.02Z"/>
    <path class="cls-1" d="m309.06,108.14c3.84-.39,7.74-.59,11.69-.59,10.14,0,19.98,1.32,29.35,3.79-32.61-46.83-85.26-78.67-145.52-83.08v29.89c40.93,3.55,77.59,22.04,104.49,50Z"/>
    <path d="m320.75,337.51c-3.95,0-7.84-.2-11.69-.59-26.9,27.95-63.55,46.44-104.49,50v29.89c60.27-4.42,112.91-36.26,145.52-83.08-9.37,2.47-19.2,3.79-29.35,3.79Z"/>
    <path d="m111.82,152.49c18.16-20.19,44.06-33.39,73.32-34.78,29.18-1.38,56.15,9.25,76.12,27.54l20.9-19.79c-24.01-22.68-56.39-36.59-92.03-36.59-40.7,0-77.15,18.14-101.74,46.77l23.43,16.85Z"/>
    <path class="cls-1" d="m279.58,167.29c9.2,14.77,14.88,32.02,15.76,50.64.98,20.61-4.04,40.11-13.51,56.82l23.43,16.85c12.01-20.09,18.92-43.58,18.92-68.69,0-28.09-8.64-54.15-23.41-75.69l-21.19,20.06Z"/>
    <path class="cls-1" d="m108.69,289.72c-13.89-16.91-22.65-38.27-23.77-61.81-.88-18.56,3.11-36.22,10.82-51.75l-23.57-16.95c-10.26,18.95-16.09,40.66-16.09,63.72,0,33.01,11.94,63.22,31.72,86.58l20.89-19.78Z"/>
    <path d="m264.49,297.51c-17.87,17.83-42.17,29.33-69.38,30.62-24.24,1.15-46.96-6-65.4-18.93l-21.19,20.07c22.6,17.37,50.9,27.71,81.61,27.71,38.64,0,73.46-16.36,97.92-42.51l-23.56-16.94Z"/>
  </g>
  <g>
    <path d="m406.55,175.18c8.04-18.23,23.13-27.35,45.28-27.35v34.4c-12.16-.78-22.74,2.11-31.76,8.67-9.02,6.57-13.53,17.4-13.53,32.49v74.1h-31.76v-147.03h31.76v24.7Z"/>
    <path d="m582.11,150.48h31.76v147.03h-31.76v-21.17c-11.96,16.66-29.11,24.99-51.46,24.99-20.19,0-37.45-7.5-51.75-22.49-14.31-15-21.47-33.27-21.47-54.84s7.15-40.09,21.47-54.99c14.31-14.9,31.56-22.35,51.75-22.35,22.35,0,39.5,8.23,51.46,24.7v-20.88Zm-79.69,107.18c8.82,8.92,19.89,13.38,33.23,13.38s24.41-4.46,33.23-13.38c8.82-8.92,13.23-20.14,13.23-33.67s-4.41-24.75-13.23-33.67c-8.82-8.92-19.9-13.38-33.23-13.38s-24.41,4.46-33.23,13.38c-8.82,8.92-13.23,20.14-13.23,33.67s4.41,24.75,13.23,33.67Z"/>
    <path d="m717.37,301.33c-22.16,0-40.63-7.45-55.43-22.35-14.8-14.9-22.2-33.23-22.2-54.99s7.4-40.33,22.2-55.14c14.8-14.8,33.27-22.2,55.43-22.2,14.31,0,27.35,3.43,39.11,10.29,11.76,6.86,20.58,16.08,26.47,27.64l-27.35,15.88c-3.34-7.06-8.38-12.59-15.14-16.61-6.76-4.02-14.56-6.03-23.38-6.03-12.94,0-23.77,4.41-32.49,13.23-8.73,8.82-13.09,19.8-13.09,32.93s4.36,24.11,13.09,32.94c8.72,8.82,19.56,13.23,32.49,13.23,8.62,0,16.42-2.06,23.38-6.18,6.96-4.12,12.2-9.6,15.73-16.47l27.35,15.59c-6.28,11.76-15.29,21.08-27.05,27.93-11.76,6.86-24.8,10.29-39.11,10.29Z"/>
    <path d="m903.5,150.48h31.76v147.03h-31.76v-18.82c-9.61,15.1-24.8,22.64-45.58,22.64-16.86,0-30.49-5.39-40.87-16.17-10.39-10.78-15.58-25.58-15.58-44.4v-90.28h31.76v87.04c0,10.98,2.94,19.41,8.82,25.29,5.88,5.88,13.92,8.82,24.11,8.82,11.17,0,20.19-3.48,27.05-10.44,6.86-6.96,10.29-17.59,10.29-31.9v-78.81Z"/>
    <path d="m997.02,190.86c0,4.84,2.72,8.67,8.15,11.47,5.43,2.81,11.95,5.38,19.55,7.72,7.6,2.35,15.4,4.75,23.38,7.21,7.98,2.46,14.65,7.01,20,13.65,5.35,6.64,8.03,15.02,8.03,25.14,0,14.12-5.44,25.19-16.32,33.23-10.88,8.04-24.55,12.06-41.02,12.06-14.51,0-26.96-3.04-37.34-9.11-10.39-6.07-17.94-14.51-22.64-25.29l27.35-15.88c5.1,14.12,15.98,21.17,32.64,21.17s24.99-5.49,24.99-16.47c0-4.71-2.7-8.53-8.09-11.47-5.39-2.94-11.89-5.58-19.5-7.93-7.6-2.34-15.4-4.74-23.38-7.2-7.98-2.45-14.67-6.87-20.05-13.24-5.4-6.37-8.09-14.46-8.09-24.26,0-13.53,5.15-24.41,15.44-32.64,10.29-8.23,23.08-12.35,38.38-12.35,12.15,0,22.98,2.7,32.49,8.09,9.51,5.39,16.81,12.89,21.91,22.5l-26.76,15c-5.1-11.17-14.31-16.76-27.64-16.76-6.08,0-11.17,1.31-15.29,3.92-4.12,2.61-6.18,6.44-6.18,11.47Z"/>
  </g>
</svg>